<svg id="Layer_1" data-name="Layer 1" xmlns="http://www.w3.org/2000/svg" viewBox="0 0 249.69 57.55"><defs><style>.cls-1{fill:#e35020;stroke:#e35020;}.cls-1,.cls-3{stroke-width:0.25px;}.cls-2,.cls-3{fill:none;}.cls-3{stroke:#000;}.cls-4,.cls-5,.cls-6,.cls-7,.cls-8{fill:#30353c;}.cls-5,.cls-6,.cls-7,.cls-8{font-size:8.79px;font-family:SVN-Neogrey;}.cls-5{letter-spacing:0.16em;}.cls-6{letter-spacing:0.16em;}.cls-7{letter-spacing:0.16em;}.cls-8{letter-spacing:0.16em;}</style></defs><title>Sdplogo</title><path class="cls-1" d="M.13,4.2H50.45a0,0,0,0,1,0,0V9a0,0,0,0,1,0,0H1.81A1.69,1.69,0,0,1,.13,7.34V4.2A0,0,0,0,1,.13,4.2Z"/><path class="cls-1" d="M78.64,48.49h44.6a1.7,1.7,0,0,1,1.7,1.7v3.13a0,0,0,0,1,0,0H78.64a0,0,0,0,1,0,0V48.49A0,0,0,0,1,78.64,48.49Z"/><path class="cls-1" d="M134.69,2.19h3.13a0,0,0,0,1,0,0V53.63a1.7,1.7,0,0,1-1.7,1.7H133a0,0,0,0,1,0,0V3.89A1.7,1.7,0,0,1,134.69,2.19Z"/><path class="cls-1" d="M.44,75.84H50.77L79,53.7h46.3v2.41a2.42,2.42,0,0,1-2.41,2.42H80.62L52.44,80.67H.44Z" transform="translate(-0.31 -49.5)"/><path class="cls-1" d="M2.85,98H50.77L79,75.84h46.3v4.83H80.62L52.44,102.82H.44V100.4A2.41,2.41,0,0,1,2.85,98Z" transform="translate(-0.31 -49.5)"/><path class="cls-2" d="M.44,66" transform="translate(-0.31 -49.5)"/><path class="cls-2" d="M.44,88.12" transform="translate(-0.31 -49.5)"/><path class="cls-3" d="M129.28,53.7" transform="translate(-0.31 -49.5)"/><path class="cls-3" d="M48.75,53.7" transform="translate(-0.31 -49.5)"/><path class="cls-4" d="M151.14,84a5.64,5.64,0,0,1-2-4.59V75.54h6.69v1a3.49,3.49,0,0,0,.65,2,2.29,2.29,0,0,0,1.51.62h18.76a4,4,0,0,0,1.37-.17,1.33,1.33,0,0,0,.74-.81,5.9,5.9,0,0,0,.27-2.09V75a5.86,5.86,0,0,0-.27-2.09,1.38,1.38,0,0,0-.74-.82,4.28,4.28,0,0,0-1.37-.16l-21,0a6.61,6.61,0,0,1-3.19-.81,6.54,6.54,0,0,1-2.43-2.36,7.1,7.1,0,0,1-1-3.6V58.67a7.16,7.16,0,0,1,1-3.6,6.43,6.43,0,0,1,2.43-2.35,6.51,6.51,0,0,1,3.19-.82h23.39a7.23,7.23,0,0,1,4.54,1.44c1.26,1,1.88,2.59,1.88,4.9v3.65h-6.42V61.6a7.3,7.3,0,0,0-.25-2.25,1.31,1.31,0,0,0-.71-.89,4.5,4.5,0,0,0-1.42-.17H158a1.83,1.83,0,0,0-1.79,1,7.29,7.29,0,0,0-.37,2.59,7.67,7.67,0,0,0,.35,2.6,1.73,1.73,0,0,0,1.67,1h21.28a7.23,7.23,0,0,1,4.54,1.44c1.26,1,1.88,2.59,1.88,4.9v7.35c0,2.31-.62,3.94-1.88,4.9a7.23,7.23,0,0,1-4.54,1.44h-23.3A7.3,7.3,0,0,1,151.14,84Z" transform="translate(-0.31 -49.5)"/><path class="cls-4" d="M217.16,49.5V75.92h-6.69V68H197.58A2.09,2.09,0,0,0,195.52,69a6.18,6.18,0,0,0-.51,3v3.41a5.69,5.69,0,0,0,.57,2.7,2.27,2.27,0,0,0,2.18,1h19.4v6.39H195.93a7.15,7.15,0,0,1-3.85-1,7.77,7.77,0,0,1-2.71-2.89,8.67,8.67,0,0,1-1.05-4.08V68.33a6.41,6.41,0,0,1,1.12-3.58,7.09,7.09,0,0,1,2.75-2.38,7.8,7.8,0,0,1,3.42-.81h14.86V49.5Z" transform="translate(-0.31 -49.5)"/><path class="cls-4" d="M244.89,62.32a7.09,7.09,0,0,1,2.75,2.38,6.42,6.42,0,0,1,1.13,3.58v9.23a8.68,8.68,0,0,1-1.06,4.08,7.75,7.75,0,0,1-2.7,2.89,7.21,7.21,0,0,1-3.86,1H229.69V79.14h9.63a2.27,2.27,0,0,0,2.18-1,5.69,5.69,0,0,0,.57-2.7V71.45q.09-3.56-2.57-3.55H226.61V93.64h-6.69V61.51h21.55A7.77,7.77,0,0,1,244.89,62.32Z" transform="translate(-0.31 -49.5)"/><text class="cls-5" transform="translate(148.82 55.33) scale(0.6 0.9)">Solution</text><text class="cls-6" transform="translate(179.67 55.33) scale(0.25 0.9)"> </text><text class="cls-7" transform="translate(180.77 55.33) scale(0.6 0.9)">-</text><text class="cls-6" transform="translate(183.42 55.33) scale(0.25 0.9)"> </text><text class="cls-5" transform="translate(184.52 55.33) scale(0.6 0.9)">Design</text><text class="cls-8" transform="translate(209.7 55.33) scale(0.25 0.9)"> </text><text class="cls-5" transform="translate(210.8 55.33) scale(0.6 0.9)">-</text><text class="cls-6" transform="translate(213.45 55.33) scale(0.25 0.9)"> </text><text class="cls-5" transform="translate(214.55 55.33) scale(0.6 0.9)">Products</text></svg>