<svg width="60" height="60" viewBox="0 0 60 60" fill="none" xmlns="http://www.w3.org/2000/svg">
<path d="M3.75012 12.4995V47.4995C3.75012 48.8745 4.89655 49.9995 6.29774 49.9995H54.7025C56.1037 49.9995 57.2501 48.8745 57.2501 47.4995V12.4995C57.2501 11.1245 56.1037 9.99951 54.7025 9.99951H6.29774C4.89655 9.99951 3.75012 11.1245 3.75012 12.4995Z" fill="#CACBD3"/>
<path d="M4.00001 48.8594L27.1094 31.0156C28.0156 30.3594 29.125 30 30.25 30C31.375 30 32.4688 30.3594 33.3906 31.0156L56.5 48.8594" stroke="black" stroke-width="1.5" stroke-miterlimit="10"/>
<path d="M55 22L32.9911 37.1384C32.128 37.6951 31.0714 38 30 38C28.9286 38 27.8869 37.6951 27.0089 37.1384L5 22" fill="#CACBD3"/>
<path d="M55 22L32.9911 37.1384C32.128 37.6951 31.0714 38 30 38C28.9286 38 27.8869 37.6951 27.0089 37.1384L5 22" stroke="black" stroke-width="1.5" stroke-miterlimit="10" stroke-linecap="round"/>
</svg>
