<svg width="60" height="60" viewBox="0 0 60 60" fill="none" xmlns="http://www.w3.org/2000/svg">
<path d="M43.7501 56.2505C33.047 56.2505 23.422 51.8286 16.4064 44.813C9.39075 37.7974 5.00012 28.2036 5.00012 17.5005C5.00012 15.2505 6.00012 13.2349 7.56262 11.8599L13.672 6.04736C14.3439 5.39111 15.2501 5.00049 16.2501 5.00049C17.547 5.00049 18.6876 5.65674 19.3595 6.65674L25.5626 15.3286C26.0001 15.938 26.2501 16.688 26.2501 17.5005C26.2501 18.6099 25.7501 19.6255 24.9845 20.313L20.0157 24.688C19.3282 25.3755 18.7501 26.3442 18.7501 27.5005C18.7345 30.2505 20.7814 34.0317 24.0001 37.2505C27.2189 40.4692 31.0001 42.5161 33.7501 42.5005C34.8907 42.5005 35.8751 41.9224 36.5626 41.2349L40.9532 36.2817C41.6407 35.5005 42.6407 35.0161 43.7657 35.0161C44.5782 35.0161 45.3126 35.2661 45.9376 35.7036L54.6095 41.9067C55.6095 42.5786 56.2657 43.7192 56.2657 45.0161C56.2657 46.0161 55.8751 46.9224 55.2345 47.5942L49.422 53.7036C48.0157 55.2505 46.0001 56.2505 43.7501 56.2505Z" fill="#CACBD3"/>
</svg>
