<svg xmlns="http://www.w3.org/2000/svg" xmlns:xlink="http://www.w3.org/1999/xlink" id="ewq8ut4TAyj1" viewBox="0 0 70 70" shape-rendering="geometricPrecision" text-rendering="geometricPrecision"><style><![CDATA[#ewq8ut4TAyj1{pointer-events: all}#ewq8ut4TAyj1:hover #ewq8ut4TAyj4_tr {animation: ewq8ut4TAyj4_tr__tr 1000ms linear 1 normal forwards}@keyframes ewq8ut4TAyj4_tr__tr { 0% {transform: translate(43.051451px,24.549999px) rotate(0deg);animation-timing-function: cubic-bezier(0.42,0,0.58,1)} 50% {transform: translate(43.051451px,24.549999px) rotate(-28.304433deg);animation-timing-function: cubic-bezier(0.42,0,0.58,1)} 80% {transform: translate(43.051451px,24.549999px) rotate(22.570034deg);animation-timing-function: cubic-bezier(0.42,0,0.58,1)} 100% {transform: translate(43.051451px,24.549999px) rotate(-0.824079deg)}} #ewq8ut4TAyj1:hover #ewq8ut4TAyj10_to {animation: ewq8ut4TAyj10_to__to 1000ms linear 1 normal forwards}@keyframes ewq8ut4TAyj10_to__to { 0% {transform: translate(16.4px,24.249999px);animation-timing-function: cubic-bezier(0.42,0,0.58,1)} 70% {transform: translate(-23.6px,24.249999px);animation-timing-function: cubic-bezier(0.42,0,0.58,1)} 100% {transform: translate(16.4px,24.249999px)}} #ewq8ut4TAyj1:hover #ewq8ut4TAyj22_to {animation: ewq8ut4TAyj22_to__to 1000ms linear 1 normal forwards}@keyframes ewq8ut4TAyj22_to__to { 0% {transform: translate(53.700001px,49.549999px);animation-timing-function: cubic-bezier(0.42,0,0.58,1)} 70% {transform: translate(83.700001px,49.549999px);animation-timing-function: cubic-bezier(0.42,0,0.58,1)} 100% {transform: translate(53.700001px,49.549999px)}}]]></style><rect id="ewq8ut4TAyj2" width="70" height="70" rx="0" ry="0" fill="rgb(255,255,255)" stroke="none" stroke-width="0"/><path id="ewq8ut4TAyj3" d="M11.9,1.8L53,1.8C53.7,1.8,54.3,2.4,54.3,3.1L54.3,66.9C54.3,67.6,53.7,68.2,53,68.2L11.9,68.2C11.2,68.2,10.6,67.6,10.6,66.9L10.6,3.1C10.6,2.3,11.1,1.8,11.9,1.8Z" fill="none" stroke="rgb(27,84,248)" stroke-width="2" stroke-miterlimit="10"/><g id="ewq8ut4TAyj4_tr" transform="translate(43.051451,24.549999) rotate(0)"><g id="ewq8ut4TAyj4" transform="translate(-43.05145,-24.549999)"><path id="ewq8ut4TAyj5" d="M44.5,28.3C45.6,28.3,46.7,28.9,47.2,29.8L39,29.8C39.6,28.8,40.6,28.3,41.7,28.3L44.5,28.3M44.5,26.3L41.7,26.3C38.8,26.3,36.5,28.6,36.5,31.5C36.5,31.7,36.7,31.8,36.8,31.8L49.3,31.8C49.5,31.8,49.6,31.6,49.6,31.5C49.7,28.7,47.2,26.3,44.5,26.3Z" fill="rgb(27,84,248)" stroke="none" stroke-width="1"/><path id="ewq8ut4TAyj6" d="M43,19.3C44,19.3,44.8,20.1,44.8,21.1C44.8,22.1,44,22.9,43,22.9C42,22.9,41.2,22.1,41.2,21.1C41.2,20.1,42,19.3,43,19.3M43,17.3C40.9,17.3,39.2,19,39.2,21.1C39.2,23.2,40.9,24.9,43,24.9C45.1,24.9,46.8,23.2,46.8,21.1C46.8,19,45.2,17.3,43,17.3L43,17.3Z" fill="rgb(27,84,248)" stroke="none" stroke-width="1"/></g></g><rect id="ewq8ut4TAyj7" width="2.3" height="2.3" rx="0" ry="0" transform="matrix(1 0 0 1 34.7 8.4)" fill="rgb(27,84,248)" stroke="none" stroke-width="1"/><rect id="ewq8ut4TAyj8" width="2.3" height="2.3" rx="0" ry="0" transform="matrix(1 0 0 1 30 8.4)" fill="rgb(27,84,248)" stroke="none" stroke-width="1"/><rect id="ewq8ut4TAyj9" width="2.3" height="2.3" rx="0" ry="0" transform="matrix(1 0 0 1 31.5 60.9)" fill="rgb(27,84,248)" stroke="none" stroke-width="1"/><g id="ewq8ut4TAyj10_to" transform="translate(16.4,24.249999)"><g id="ewq8ut4TAyj10" transform="translate(-16.4,-24.249999)"><g id="ewq8ut4TAyj11"><rect id="ewq8ut4TAyj12" width="27.3" height="8.9" rx="0" ry="0" transform="matrix(1 0 0 1 2.8 19.8)" fill="rgb(255,255,255)" stroke="none" stroke-width="1"/><path id="ewq8ut4TAyj13" d="M29,20.8L29,27.7L3.8,27.7L3.8,20.8L29,20.8M31,18.8L1.8,18.8L1.8,29.7L31,29.7L31,18.8Z" fill="rgb(27,84,248)" stroke="none" stroke-width="1"/></g><rect id="ewq8ut4TAyj14" width="2.3" height="2.3" rx="0" ry="0" transform="matrix(1 0 0 1 6.1 23.1)" fill="rgb(27,84,248)" stroke="none" stroke-width="1"/><rect id="ewq8ut4TAyj15" width="2.3" height="2.3" rx="0" ry="0" transform="matrix(1 0 0 1 10.6 23.1)" fill="rgb(27,84,248)" stroke="none" stroke-width="1"/><rect id="ewq8ut4TAyj16" width="2.3" height="2.3" rx="0" ry="0" transform="matrix(1 0 0 1 15.2 23.1)" fill="rgb(27,84,248)" stroke="none" stroke-width="1"/><rect id="ewq8ut4TAyj17" width="2.3" height="2.3" rx="0" ry="0" transform="matrix(1 0 0 1 19.9 23.1)" fill="rgb(27,84,248)" stroke="none" stroke-width="1"/><rect id="ewq8ut4TAyj18" width="2.3" height="2.3" rx="0" ry="0" transform="matrix(1 0 0 1 24.4 23.1)" fill="rgb(27,84,248)" stroke="none" stroke-width="1"/></g></g><rect id="ewq8ut4TAyj19" width="34.5" height="6.9" rx="0" ry="0" transform="matrix(1 0 0 1 15.5 6.1)" fill="none" stroke="rgb(27,84,248)" stroke-width="2" stroke-miterlimit="10"/><path id="ewq8ut4TAyj20" d="M28,34.3L32.6,34.3C33.2,34.3,33.8,34.8,33.8,35.5L33.8,40C33.8,40.6,33.3,41.2,32.6,41.2L28,41.2C27.4,41.2,26.8,40.7,26.8,40L26.8,35.4C27,34.8,27.5,34.3,28,34.3Z" fill="none" stroke="rgb(27,84,248)" stroke-width="2" stroke-miterlimit="10"/><path id="ewq8ut4TAyj21" d="M15.5,34.3L20.1,34.3C20.7,34.3,21.2,34.8,21.2,35.5L21.2,40C21.2,40.6,20.7,41.2,20.1,41.2L15.5,41.2C14.9,41.2,14.4,40.7,14.4,40L14.4,35.4C14.4,34.8,14.9,34.3,15.5,34.3Z" fill="none" stroke="rgb(27,84,248)" stroke-width="2" stroke-miterlimit="10"/><g id="ewq8ut4TAyj22_to" transform="translate(53.700001,49.549999)"><g id="ewq8ut4TAyj22" transform="translate(-53.700001,-49.549999)"><rect id="ewq8ut4TAyj23" width="20.4" height="18.1" rx="0" ry="0" transform="matrix(1 0 0 1 43.5 40.5)" fill="rgb(255,255,255)" stroke="none" stroke-width="1"/><path id="ewq8ut4TAyj24" d="M62.8,41.5L62.8,57.6L44.5,57.6L44.5,41.5L62.8,41.5M64.8,39.5L42.5,39.5L42.5,59.6L64.9,59.6L64.8,39.5L64.8,39.5Z" fill="rgb(27,84,248)" stroke="none" stroke-width="1"/><rect id="ewq8ut4TAyj25" width="1.1" height="1.1" rx="0" ry="0" transform="matrix(1 0 0 1 47.2 44.4)" fill="rgb(27,84,248)" stroke="none" stroke-width="1"/><line id="ewq8ut4TAyj26" x1="60.5" y1="44.9" x2="51.5" y2="44.9" fill="none" stroke="rgb(27,84,248)" stroke-width="2" stroke-miterlimit="10"/><line id="ewq8ut4TAyj27" x1="60.5" y1="49.8" x2="46.8" y2="49.8" fill="none" stroke="rgb(27,84,248)" stroke-width="2" stroke-miterlimit="10"/><line id="ewq8ut4TAyj28" x1="60.5" y1="54" x2="46.8" y2="54" fill="none" stroke="rgb(27,84,248)" stroke-width="2" stroke-miterlimit="10"/></g></g><line id="ewq8ut4TAyj29" x1="40" y1="49.7" x2="13.1" y2="49.7" fill="none" stroke="rgb(27,84,248)" stroke-width="2" stroke-miterlimit="10"/><line id="ewq8ut4TAyj30" x1="40" y1="53.9" x2="13.1" y2="53.9" fill="none" stroke="rgb(27,84,248)" stroke-width="2" stroke-miterlimit="10"/></svg>