<svg xmlns="http://www.w3.org/2000/svg" xmlns:xlink="http://www.w3.org/1999/xlink" id="e3RYnfQgWKm1" viewBox="0 0 70 70" shape-rendering="geometricPrecision" text-rendering="geometricPrecision"><style><![CDATA[#e3RYnfQgWKm1{pointer-events: all}#e3RYnfQgWKm1:hover #e3RYnfQgWKm4_to {animation: e3RYnfQgWKm4_to__to 1300ms linear 1 normal forwards}@keyframes e3RYnfQgWKm4_to__to { 0% {transform: translate(-6.02px,-6.37px)} 46.153846% {transform: translate(-6.02px,-6.37px);animation-timing-function: cubic-bezier(0,0,0.58,1)} 53.846154% {transform: translate(10.98px,-6.37px)} 100% {transform: translate(10.98px,-6.37px)}} #e3RYnfQgWKm1:hover #e3RYnfQgWKm5_to {animation: e3RYnfQgWKm5_to__to 1300ms linear 1 normal forwards}@keyframes e3RYnfQgWKm5_to__to { 0% {transform: translate(-6.02px,-6.37px)} 46.153846% {transform: translate(-6.02px,-6.37px);animation-timing-function: cubic-bezier(0,0,0.58,1)} 53.846154% {transform: translate(10.98px,-6.37px)} 100% {transform: translate(10.98px,-6.37px)}} #e3RYnfQgWKm1:hover #e3RYnfQgWKm6_to {animation: e3RYnfQgWKm6_to__to 1300ms linear 1 normal forwards}@keyframes e3RYnfQgWKm6_to__to { 0% {transform: translate(45.949999px,15.195001px);animation-timing-function: cubic-bezier(0,0,0.58,1)} 23.076923% {transform: translate(45.949999px,27.920001px);animation-timing-function: cubic-bezier(0,0,0.58,1)} 46.153846% {transform: translate(45.944999px,11.591797px);animation-timing-function: cubic-bezier(0,0,0.58,1)} 61.538462% {transform: translate(12.07497px,11.637563px);animation-timing-function: cubic-bezier(0,0,0.58,1)} 76.923077% {transform: translate(12.014999px,27.920001px);animation-timing-function: cubic-bezier(0,0,0.58,1)} 92.307692% {transform: translate(12.019999px,15.40667px)} 100% {transform: translate(12.019999px,15.40667px)}} #e3RYnfQgWKm1:hover #e3RYnfQgWKm7_to {animation: e3RYnfQgWKm7_to__to 1300ms linear 1 normal forwards}@keyframes e3RYnfQgWKm7_to__to { 0% {transform: translate(45.945002px,4.24px);animation-timing-function: cubic-bezier(0,0,0.58,1)} 23.076923% {transform: translate(45.945002px,16.965px);animation-timing-function: cubic-bezier(0,0,0.58,1)} 46.153846% {transform: translate(45.940002px,0.636796px);animation-timing-function: cubic-bezier(0,0,0.58,1)} 61.538462% {transform: translate(12.015002px,0.802562px);animation-timing-function: cubic-bezier(0,0,0.58,1)} 76.923077% {transform: translate(12.010002px,16.965px);animation-timing-function: cubic-bezier(0,0,0.58,1)} 92.307692% {transform: translate(12.015002px,4.451669px)} 100% {transform: translate(12.015002px,4.451669px)}} #e3RYnfQgWKm1:hover #e3RYnfQgWKm14_to {animation: e3RYnfQgWKm14_to__to 1300ms linear 1 normal forwards}@keyframes e3RYnfQgWKm14_to__to { 0% {transform: translate(-6.02px,-0.72px)} 23.076923% {transform: translate(-6.02px,-0.72px);animation-timing-function: cubic-bezier(0,0,0.58,1)} 46.153846% {transform: translate(-6.02px,-17.72px);animation-timing-function: cubic-bezier(0,0,0.58,1)} 61.538462% {transform: translate(-40.02px,-17.72px);animation-timing-function: cubic-bezier(0,0,0.58,1)} 76.923077% {transform: translate(-40.02px,-0.72px)} 100% {transform: translate(-40.02px,-0.72px)}}]]></style><rect id="e3RYnfQgWKm2" width="70" height="70" rx="0" ry="0" fill="rgb(255,255,255)" stroke="none" stroke-width="0"/><g id="e3RYnfQgWKm3" transform="matrix(1 0 0 1 6.02 6.370001)"><g id="e3RYnfQgWKm4_to" transform="translate(-6.02,-6.37)"><path id="e3RYnfQgWKm4" d="M11.67,32.53L11.67,45.25L24.4,45.25L24.4,32.53ZM23,43.84L13.09,43.84L13.09,33.94L17.33,33.94L17.33,38.94L18.74,38.94L18.74,33.94L23,33.94Z" transform="translate(0,0)" fill="rgb(27,84,248)" stroke="rgb(27,84,248)" stroke-width="0.8"/></g><g id="e3RYnfQgWKm5_to" transform="translate(-6.02,-6.37)"><path id="e3RYnfQgWKm5" d="M28.64,32.53L28.64,45.25L41.36,45.25L41.36,32.53ZM40,43.84L30.1,43.84L30.1,33.94L34.34,33.94L34.34,38.94L35.76,38.94L35.76,33.94L40,33.94Z" transform="translate(0,0)" fill="rgb(27,84,248)" stroke="rgb(27,84,248)" stroke-width="0.8"/></g><g id="e3RYnfQgWKm6_to" transform="translate(45.949999,15.195001)"><polygon id="e3RYnfQgWKm6" points="36.76,19.79 35.35,19.79 35.35,12.4 37.47,10.6 54.43,10.6 56.55,12.4 56.55,19.79 55.14,19.79 55.14,13.05 53.94,12.02 37.96,12.02 36.76,13.05 36.76,19.79" transform="scale(0.837628,1) translate(-45.949999,-15.195001)" fill="rgb(27,84,248)" stroke="rgb(27,84,248)" stroke-width="0.8"/></g><g id="e3RYnfQgWKm7_to" transform="translate(45.945002,4.24)"><rect id="e3RYnfQgWKm7" width="1.41" height="8.48" rx="0" ry="0" transform="scale(0.837628,1) translate(-0.705002,-4.24)" fill="rgb(27,84,248)" stroke="rgb(27,84,248)" stroke-width="0.8"/></g><path id="e3RYnfQgWKm8" d="M62.15,49.49L7.85,49.49L6,51.32L6,57.56L7.83,59.39L62.13,59.39L64,57.56L64,51.32ZM62.57,57L61.57,58L8.43,58L7.43,57L7.43,51.9L8.43,50.9L61.57,50.9L62.57,51.9Z" transform="matrix(1 0 0 1 -6.02 -6.37)" fill="rgb(27,84,248)" stroke="rgb(27,84,248)" stroke-width="0.8"/><rect id="e3RYnfQgWKm9" width="56.55" height="1.41" rx="0" ry="0" transform="matrix(1 0 0 1 0.705 55.85)" fill="rgb(27,84,248)" stroke="rgb(27,84,248)" stroke-width="0.8" stroke-linecap="round"/><rect id="e3RYnfQgWKm10" width="5.66" height="1.41" rx="0" ry="0" transform="matrix(1 0 0 1 9.19 47.36)" fill="rgb(27,84,248)" stroke="rgb(27,84,248)" stroke-width="0.8"/><rect id="e3RYnfQgWKm11" width="5.66" height="1.41" rx="0" ry="0" transform="matrix(1 0 0 1 20.5 47.36)" fill="rgb(27,84,248)" stroke="rgb(27,84,248)" stroke-width="0.8"/><rect id="e3RYnfQgWKm12" width="5.66" height="1.41" rx="0" ry="0" transform="matrix(1 0 0 1 31.81 47.36)" fill="rgb(27,84,248)" stroke="rgb(27,84,248)" stroke-width="0.8"/><rect id="e3RYnfQgWKm13" width="5.66" height="1.41" rx="0" ry="0" transform="matrix(1 0 0 1 43.12 47.36)" fill="rgb(27,84,248)" stroke="rgb(27,84,248)" stroke-width="0.8"/><g id="e3RYnfQgWKm14_to" transform="translate(-6.02,-0.72)"><path id="e3RYnfQgWKm14" d="M45.6,26.87L45.6,39.6L58.33,39.6L58.33,26.87ZM56.91,38.18L47,38.18L47,28.28L51.24,28.28L51.24,33.23L52.65,33.23L52.65,28.28L56.89,28.28Z" transform="translate(0,0)" fill="rgb(27,84,248)" stroke="rgb(27,84,248)" stroke-width="0.8"/></g></g></svg>