    <svg xmlns="http://www.w3.org/2000/svg" xmlns:xlink="http://www.w3.org/1999/xlink" id="eD792RkyEo81" viewBox="0 0 80 80" shape-rendering="geometricPrecision" text-rendering="geometricPrecision"><style><![CDATA[#eD792RkyEo81{pointer-events: all}#eD792RkyEo81:hover #eD792RkyEo83_to {animation: eD792RkyEo83_to__to 1000ms linear 1 normal forwards}@keyframes eD792RkyEo83_to__to { 0% {transform: translate(39.950001px,40px);animation-timing-function: cubic-bezier(0.42,0,0.58,1)} 50% {transform: translate(39.950001px,90px);animation-timing-function: cubic-bezier(0.42,0,0.58,1)} 100% {transform: translate(39.950001px,40px)}} #eD792RkyEo81:hover #eD792RkyEo83_ts {animation: eD792RkyEo83_ts__ts 1000ms linear 1 normal forwards}@keyframes eD792RkyEo83_ts__ts { 0% {transform: scale(1,1);animation-timing-function: cubic-bezier(0.42,0,0.58,1)} 50% {transform: scale(0,0);animation-timing-function: cubic-bezier(0.42,0,0.58,1)} 100% {transform: scale(1,1)}}]]></style><rect id="eD792RkyEo82" width="80" height="80" rx="0" ry="0" fill="rgb(255,255,255)" stroke="none" stroke-width="0"/><g id="eD792RkyEo83_to" transform="translate(39.950001,40)"><g id="eD792RkyEo83_ts" transform="scale(1,1)"><g id="eD792RkyEo83" transform="translate(-39.950001,-40)"><path id="eD792RkyEo84" d="M54.7,48.5L34.7,48.5C34.4,48.5,34.2,48.3,34.2,48C34.2,47.7,34.4,47.5,34.7,47.5L54.7,47.5C55,47.5,55.2,47.7,55.2,48C55.2,48.3,55,48.5,54.7,48.5Z" fill="rgb(27,84,248)" stroke="none" stroke-width="1"/><path id="eD792RkyEo85" d="M54.7,54.1L34.7,54.1C34.4,54.1,34.2,53.9,34.2,53.6C34.2,53.3,34.4,53.1,34.7,53.1L54.7,53.1C55,53.1,55.2,53.3,55.2,53.6C55.2,53.9,55,54.1,54.7,54.1Z" fill="rgb(27,84,248)" stroke="none" stroke-width="1"/><path id="eD792RkyEo86" d="M54.7,43L34.7,43C34.4,43,34.2,42.8,34.2,42.5C34.2,42.2,34.4,42,34.7,42L54.7,42C55,42,55.2,42.2,55.2,42.5C55.2,42.8,55,43,54.7,43Z" fill="rgb(27,84,248)" stroke="none" stroke-width="1"/><path id="eD792RkyEo87" d="M54.7,37.5L34.7,37.5C34.4,37.5,34.2,37.3,34.2,37C34.2,36.7,34.4,36.5,34.7,36.5L54.7,36.5C55,36.5,55.2,36.7,55.2,37C55.2,37.3,55,37.5,54.7,37.5Z" fill="rgb(27,84,248)" stroke="none" stroke-width="1"/><path id="eD792RkyEo88" d="M54.9,31.1L41.1,31.1C40.9,31.1,40.8,30.9,40.8,30.6C40.8,30.3,41,30.1,41.1,30.1L54.9,30.1C55.1,30.1,55.2,30.3,55.2,30.6C55.2,30.9,55.1,31.1,54.9,31.1Z" fill="rgb(27,84,248)" stroke="none" stroke-width="1"/><path id="eD792RkyEo89" d="M54.9,26.8L41.1,26.8C40.9,26.8,40.8,26.6,40.8,26.3C40.8,26,41,25.8,41.1,25.8L54.9,25.8C55.1,25.8,55.2,26,55.2,26.3C55.2,26.6,55.1,26.8,54.9,26.8Z" fill="rgb(27,84,248)" stroke="none" stroke-width="1"/><path id="eD792RkyEo810" d="M54.9,22.6L41.1,22.6C40.9,22.6,40.8,22.4,40.8,22.1C40.8,21.8,41,21.6,41.1,21.6L54.9,21.6C55.1,21.6,55.2,21.8,55.2,22.1C55.2,22.4,55.1,22.6,54.9,22.6Z" fill="rgb(27,84,248)" stroke="none" stroke-width="1"/><path id="eD792RkyEo811" d="M58.7,43.5L58.7,18L28.2,18L28.2,40L21.2,40L21.2,58.5C21.2,60.4,22.8,62,24.7,62L24.7,62L58.7,62C58.7,62,58.7,43.5,58.7,43.5ZM25.2,61C23.5,61,22.2,59.7,22.2,58L22.2,58L22.2,41L28.2,41L28.2,58C28.2,59.7,26.9,61,25.2,61L25.2,61ZM57.8,61L27.9,61C28.8,60.2,29.3,59.1,29.3,58L29.3,19L57.8,19L57.8,43.1L57.8,43.1L57.8,61Z" fill="rgb(27,84,248)" stroke="rgb(27,84,248)" stroke-width="0.5" stroke-miterlimit="10"/><path id="eD792RkyEo812" d="M35.3,26.2L35.3,24.1C35.6,24.3,35.8,24.6,35.8,25C35.8,25.3,36,25.5,36.3,25.5C36.6,25.5,36.8,25.3,36.8,25C36.8,24.1,36.2,23.3,35.3,23.1L35.3,22.8C35.3,22.5,35.1,22.3,34.8,22.3C34.5,22.3,34.3,22.5,34.3,22.8L34.3,23.1C33.4,23.3,32.8,24.1,32.8,25C32.8,26,33.6,26.5,34.3,26.8L34.3,28.8C34,28.6,33.8,28.3,33.8,27.9C33.8,27.6,33.6,27.4,33.3,27.4C33,27.4,32.8,27.6,32.8,27.9C32.8,28.8,33.4,29.6,34.3,29.8L34.3,30.1C34.3,30.4,34.5,30.6,34.8,30.6C35.1,30.6,35.3,30.4,35.3,30.1L35.3,29.8C36.2,29.6,36.8,28.8,36.8,27.9C36.8,27,36,26.5,35.3,26.2ZM33.8,25C33.8,24.6,34,24.3,34.3,24.1L34.3,25.6C33.9,25.5,33.8,25.3,33.8,25ZM35.3,28.9L35.3,27.4C35.6,27.6,35.8,27.8,35.8,28.1C35.8,28.4,35.6,28.7,35.3,28.9Z" fill="rgb(27,84,248)" stroke="none" stroke-width="1"/></g></g></g><path id="eD792RkyEo813" d="M76.2,2.5C76.9,2.5,77.4,3,77.4,3.7L77.4,76.2C77.4,76.9,76.8,77.4,76.2,77.4L3.8,77.4C3.1,77.4,2.6,76.9,2.6,76.2L2.6,3.7C2.6,3,3.2,2.5,3.8,2.5L76.2,2.5M76.2,0.5L3.8,0.5C2,0.5,0.5,2,0.5,3.7L0.5,76.2C0.5,78,1.9,79.4,3.7,79.4L76.1,79.4C77.9,79.4,79.3,78,79.3,76.2L79.3,3.7C79.5,2,78,0.5,76.2,0.5L76.2,0.5Z" fill="rgb(27,84,248)" stroke="none" stroke-width="1"/></svg>