<svg xmlns="http://www.w3.org/2000/svg" xmlns:xlink="http://www.w3.org/1999/xlink" id="esCjBAIdNZy1" viewBox="0 0 70 70" shape-rendering="geometricPrecision" text-rendering="geometricPrecision"><style><![CDATA[#esCjBAIdNZy1{pointer-events: all}#esCjBAIdNZy1:hover #esCjBAIdNZy4 {animation: esCjBAIdNZy4_c_o 1200ms linear 1 normal forwards}@keyframes esCjBAIdNZy4_c_o { 0% {opacity: 0} 33.333333% {opacity: 0} 58.333333% {opacity: 1} 100% {opacity: 1}} #esCjBAIdNZy1:hover #esCjBAIdNZy5 {animation: esCjBAIdNZy5_c_o 1200ms linear 1 normal forwards}@keyframes esCjBAIdNZy5_c_o { 0% {opacity: 0} 66.666667% {opacity: 0} 91.666667% {opacity: 1} 100% {opacity: 1}} #esCjBAIdNZy1:hover #esCjBAIdNZy6 {animation: esCjBAIdNZy6_c_o 1200ms linear 1 normal forwards}@keyframes esCjBAIdNZy6_c_o { 0% {opacity: 0} 25% {opacity: 1} 100% {opacity: 1}}]]></style><rect id="esCjBAIdNZy2" width="70" height="70" rx="0" ry="0" fill="rgb(255,255,255)" stroke="none" stroke-width="0"/><g id="esCjBAIdNZy3" transform="matrix(1 0 0 1 -1291 -220)"><path id="esCjBAIdNZy4" d="M48.462,37.6C42.752151,37.606485,37.536137,40.838764,34.989,45.949C34.759856,46.401541,34.721181,46.92692,34.881587,47.408138C35.041992,47.889355,35.38816,48.286453,35.843,48.511C36.115805,48.619172,36.404066,48.683305,36.697,48.701C37.410253,48.681693,38.059201,48.283865,38.4,47.657C40.312172,43.858668,44.209551,41.469965,48.462,41.49C52.701273,41.512152,56.576885,43.888696,58.519,47.657C58.842451,48.3023,59.505208,48.707017,60.227,48.7C60.519934,48.682305,60.808195,48.618172,61.081,48.51C61.53584,48.285453,61.882008,47.888355,62.042413,47.407138C62.202819,46.92592,62.164144,46.400541,61.935,45.948C59.375788,40.848921,54.167235,37.621651,48.462,37.6Z" transform="matrix(0.777778 0 0 0.777778 1288.709323 215.92799)" opacity="0" fill="rgb(27,84,248)" stroke="none" stroke-width="1"/><path id="esCjBAIdNZy5" d="M67.859,40.829C64.220798,33.233217,56.54614,28.399603,48.124,28.399603C39.70186,28.399603,32.027202,33.233217,28.389,40.829C28.159856,41.281541,28.121181,41.80692,28.281587,42.288138C28.441992,42.769355,28.78816,43.166453,29.243,43.391C29.51581,43.499156,29.804068,43.563288,30.097,43.581C30.817218,43.585914,31.477626,43.18106,31.8,42.537C34.821733,36.271996,41.163345,32.28997,48.119,32.28997C55.074655,32.28997,61.416267,36.271996,64.438,42.537C64.76117,43.182688,65.423985,43.587828,66.146,43.581C66.438934,43.563305,66.727195,43.499172,67,43.391C67.455717,43.16735,67.802985,42.770636,67.96436,42.28933C68.125734,41.808025,68.087794,41.282156,67.859,40.829Z" transform="matrix(0.777778 0 0 0.777778 1288.5841 215.639846)" opacity="0" fill="rgb(27,84,248)" stroke="none" stroke-width="1"/><path id="esCjBAIdNZy6" d="M48.815,47C45.906953,46.985913,43.234468,48.59689,41.889,51.175C41.659856,51.627541,41.621181,52.15292,41.781587,52.634138C41.941992,53.115355,42.28816,53.512453,42.743,53.737C43.00032,53.889281,43.299388,53.955818,43.597,53.927C44.310463,53.90749,44.959461,53.509251,45.3,52.882C45.999005,51.535308,47.392721,50.692901,48.91,50.7C50.418531,50.719468,51.798169,51.554522,52.515,52.882C52.856686,53.510385,53.507942,53.908459,54.223,53.926C54.515934,53.908305,54.804195,53.844172,55.077,53.736C55.53184,53.511453,55.878008,53.114355,56.038413,52.633138C56.198819,52.15192,56.160144,51.626541,55.931,51.174C54.468401,48.617844,51.759874,47.029116,48.815,47Z" transform="matrix(0.777778 0 0 0.777778 1287.598878 216.301818)" opacity="0" fill="rgb(27,84,248)" stroke="none" stroke-width="1"/><path id="esCjBAIdNZy7" d="M82.909,85.391L58.988,85.391L58.988,64.043C58.961398,63.889035,58.824049,63.779157,58.668,63.787L44.677,63.787C44.57,63.787,44.357,63.872,44.357,64.043L44.357,85.391L20.542,85.391C16.697,85.391,13.6,82.915,13.6,79.841L13.6,34.754C13.617314,33.389459,14.196065,32.092331,15.2,31.168L46.384,1.968C47.824993,0.686209,49.690472,-0.015082,51.619,0L51.619,0C53.553189,-0.055682,55.432063,0.649479,56.852,1.964L88.036,31.164C89.039935,32.088331,89.618686,33.385459,89.636,34.75L89.636,79.841C89.744,82.915,86.647,85.391,82.909,85.391ZM63.259,81.975L82.909,81.975C84.234926,82.119504,85.428317,81.165238,85.579,79.84L85.579,34.754C85.584296,34.224856,85.348372,33.72209,84.938,33.388L53.648,4.184C53.14772,3.663215,52.44744,3.38303,51.726,3.415L51.726,3.415C50.97623,3.402533,50.250161,3.677717,49.697,4.184L18.513,33.384C18.102628,33.71809,17.866704,34.220856,17.872,34.75L17.872,79.841C18.022683,81.166238,19.216074,82.120504,20.542,81.976L40.192,81.976L40.192,64.043C40.192,61.994,42.221,60.371,44.784,60.371L58.774,60.371C61.337,60.371,63.366,61.993,63.366,64.043L63.366,81.975Z" transform="matrix(0.777778 0 0 0.777778 1285.865102 221.791543)" fill="rgb(27,84,248)" stroke="none" stroke-width="1"/></g></svg>