<svg xmlns="http://www.w3.org/2000/svg" xmlns:xlink="http://www.w3.org/1999/xlink" id="ePtvweYQTID1" viewBox="0 0 70 70" shape-rendering="geometricPrecision" text-rendering="geometricPrecision"><style><![CDATA[#ePtvweYQTID1{pointer-events: all}#ePtvweYQTID1:hover #ePtvweYQTID10_tr {animation: ePtvweYQTID10_tr__tr 1000ms linear 1 normal forwards}@keyframes ePtvweYQTID10_tr__tr { 0% {transform: translate(39.81px,37.996017px) rotate(0deg)} 30% {transform: translate(39.81px,37.996017px) rotate(4.579921deg)} 70% {transform: translate(39.81px,37.996017px) rotate(0deg)} 100% {transform: translate(39.81px,37.996017px) rotate(0deg)}} #ePtvweYQTID1:hover #ePtvweYQTID11_to {animation: ePtvweYQTID11_to__to 1000ms linear 1 normal forwards}@keyframes ePtvweYQTID11_to__to { 0% {offset-distance: 0%} 30% {offset-distance: 54.869847%} 70% {offset-distance: 100%} 100% {offset-distance: 100%}} #ePtvweYQTID1:hover #ePtvweYQTID11_tr {animation: ePtvweYQTID11_tr__tr 1000ms linear 1 normal forwards}@keyframes ePtvweYQTID11_tr__tr { 0% {transform: rotate(-0.699776deg)} 30% {transform: rotate(-24.892407deg)} 70% {transform: rotate(0deg)} 100% {transform: rotate(0deg)}} #ePtvweYQTID1:hover #ePtvweYQTID12_to {animation: ePtvweYQTID12_to__to 1000ms linear 1 normal forwards}@keyframes ePtvweYQTID12_to__to { 0% {offset-distance: 0%} 30% {offset-distance: 56.791261%} 70% {offset-distance: 100%} 100% {offset-distance: 100%}} #ePtvweYQTID1:hover #ePtvweYQTID12_tr {animation: ePtvweYQTID12_tr__tr 1000ms linear 1 normal forwards}@keyframes ePtvweYQTID12_tr__tr { 0% {transform: rotate(0deg)} 30% {transform: rotate(15.145568deg)} 70% {transform: rotate(0deg)} 100% {transform: rotate(0deg)}} #ePtvweYQTID1:hover #ePtvweYQTID13_tr {animation: ePtvweYQTID13_tr__tr 1000ms linear 1 normal forwards}@keyframes ePtvweYQTID13_tr__tr { 0% {transform: translate(43.498567px,38.015987px) rotate(0deg)} 30% {transform: translate(43.498567px,38.015987px) rotate(-5.258124deg)} 70% {transform: translate(43.498567px,38.015987px) rotate(0deg)} 100% {transform: translate(43.498567px,38.015987px) rotate(0deg)}}]]></style><rect id="ePtvweYQTID2" width="70" height="70" rx="0" ry="0" fill="rgb(255,255,255)" stroke="none" stroke-width="0"/><g id="ePtvweYQTID3" transform="matrix(0.666603 0 0 0.666603 -848.915578 -398.29195)"><g id="ePtvweYQTID4" transform="matrix(1 0 0 1 1280.88 324.827)"><g id="ePtvweYQTID5" transform="matrix(1 0 0 1 2.118 282.173)"><path id="ePtvweYQTID6" d="M257.574,837.29C265.293712,837.362098,272.727516,834.372611,278.248,828.976C285.734,821.376,293.254,813.776,300.721,806.149C302.012293,804.809272,302.748625,803.030428,302.782,801.17C302.782,801.162,302.782,801.153,302.782,801.145C302.782,801.137,302.782,801.106,302.782,801.086C302.765613,797.093971,299.536996,793.860001,295.545,793.837C291.918,793.837,294.09,793.862,291.945,793.837C290.036767,793.898408,288.242252,794.759195,287,796.209C283.548,799.822,278,805.209,278,805.209C277.515311,805.654066,277.310353,806.327121,277.464716,806.966792C277.61908,807.606463,278.108445,808.111964,278.742773,808.286993C279.377101,808.462021,280.056448,808.278999,280.517,807.809C280.977552,807.339001,286.072,802.421,289.617,798.709C290.165729,797.982369,291.000101,797.526396,291.908,797.457C294.052,797.482,291.939,797.457,295.549,797.457C297.542041,797.478754,299.150399,799.092894,299.165,801.086C299.138858,802.025347,298.773305,802.923421,298.136,803.614C290.679,811.232,283.161,818.825,275.67,826.433C270.317,831.87,263.007,833.669,257.577,833.669L217.712,833.669C216.728663,833.692112,215.943553,834.495892,215.943553,835.4795C215.943553,836.463108,216.728663,837.266888,217.712,837.29Z" transform="matrix(1 0 0 1 -215.901 -750.381)" fill="rgb(27,84,248)" stroke="none" stroke-width="1"/><path id="ePtvweYQTID7" d="M241.843,810.437C245.842922,810.437,249.0855,807.194422,249.0855,803.1945C249.0855,799.194578,245.842922,795.952,241.843,795.952C240.842812,795.952,240.032,796.762812,240.032,797.763C240.032,798.763188,240.842812,799.574,241.843,799.574C243.842823,799.574,245.464,801.195177,245.464,803.195C245.464,805.194823,243.842823,806.816,241.843,806.816L221.943,806.816C221.286027,806.800559,220.672241,807.142221,220.339216,807.708743C220.006191,808.275264,220.006191,808.977736,220.339216,809.544257C220.672241,810.110779,221.286027,810.452441,221.943,810.437Z" transform="matrix(1 0 0 1 -191.165 -738.013)" fill="rgb(27,84,248)" stroke="none" stroke-width="1"/><path id="ePtvweYQTID8" d="M217.707,806.286C222.534,806.305,225.556,803.826,228.315,802.128C231.188,800.359,233.474,799.044,237.042,799.044C239.866481,799.040589,242.673194,799.490649,245.355,800.377C250.663,802.002,256.694,802.668,266.546,802.668C267.546188,802.668,268.357,801.857188,268.357,800.857C268.357,799.856812,267.546188,799.046,266.546,799.046C256.857,799.046,251.258,798.393,246.415,796.91C243.387065,795.92813,240.22415,795.426059,237.041,795.422C232.541,795.422,229.354,797.233,226.419,799.039C223.37,800.915,221.327,802.678,217.719,802.663C216.718812,802.658029,215.903971,803.464812,215.899,804.465C215.894029,805.465188,216.700812,806.280029,217.701,806.285Z" transform="matrix(1 0 0 1 -215.901 -741.105)" fill="rgb(27,84,248)" stroke="none" stroke-width="1"/><path id="ePtvweYQTID9" d="M223.5,791.719C223.018528,791.726353,222.559833,791.925255,222.2254,792.271699C221.890967,792.618143,221.708367,793.083569,221.718,793.565L221.718,808C221.718,808.647008,222.063175,809.244868,222.6235,809.568372C223.183825,809.891876,223.874175,809.891876,224.4345,809.568372C224.994825,809.244868,225.34,808.647008,225.34,808L225.34,793.565C225.346817,793.075482,225.155158,792.604058,224.8087,792.258165C224.462243,791.912273,223.990506,791.721383,223.501,791.729Z" transform="matrix(1 0 0 1 -181.913 -762.749)" fill="rgb(27,84,248)" stroke="none" stroke-width="1"/><g id="ePtvweYQTID10_tr" transform="translate(39.81,37.996017) rotate(0)"><path id="ePtvweYQTID10" d="M241.624,789.073C241.339726,789.074473,241.05981,789.142996,240.807,789.273C236.751391,791.614575,233.075941,794.559993,229.907,798.008C225.683,802.466,221.723,808.165,221.723,814.394C221.723,815.041008,222.068175,815.638868,222.6285,815.962372C223.188825,816.285876,223.879175,816.285876,224.4395,815.962372C224.999825,815.638868,225.345,815.041008,225.345,814.394C225.345,809.774,228.621,804.628,232.535,800.494C235.455571,797.396026,238.783706,794.709431,242.428,792.508C243.189701,792.139249,243.59447,791.292146,243.402832,790.467864C243.211194,789.643583,242.47425,789.061917,241.628,789.067Z" transform="translate(-221.723,-816.205017)" fill="rgb(27,84,248)" stroke="none" stroke-width="1"/></g><g id="ePtvweYQTID11_to" style="offset-path:path('M25.310761,14.475231C23.976655,13.729042,22.015446,13.912079,21.69612,16.226304L25.310761,14.475231');offset-rotate:0deg"><g id="ePtvweYQTID11_tr" transform="rotate(-0.699776)"><path id="ePtvweYQTID11" d="M219.313,787.486C218.82671,787.481139,218.358922,787.672171,218.015046,788.016046C217.671171,788.359922,217.480139,788.82771,217.485,789.314C217.546797,792.448843,217.774448,795.578219,218.167,798.689C218.81,803.689,219.749,809.299,222.867,812.417C228.270305,817.787925,237.000528,817.774806,242.387667,812.387667C247.774806,807.000528,247.787925,798.270305,242.417,792.867C239.299,789.749,233.686,788.81,228.688,788.167C225.577208,787.774706,222.447829,787.547388,219.313,787.486ZM221.251,791.252C223.583823,791.277151,225.91289,791.445803,228.225,791.757C232.976,792.368,238.284,793.857,239.857,795.428C242.434314,798.004778,243.441156,801.7608,242.498257,805.281208C241.555359,808.801617,238.80597,811.551578,235.285757,812.495208C231.765545,813.438839,228.009314,812.432778,225.432,809.856C223.859,808.284,222.372,802.975,221.761,798.225C221.449114,795.91257,221.279129,793.58321,221.252,791.25Z" transform="translate(-231.960761,-801.961231)" fill="rgb(27,84,248)" stroke="none" stroke-width="1"/></g></g><g id="ePtvweYQTID12_to" style="offset-path:path('M57.919248,14.47575C59.849372,13.888943,61.095668,15.046002,60.48324,16.726867L57.919248,14.47575');offset-rotate:0deg"><g id="ePtvweYQTID12_tr" transform="rotate(0)"><path id="ePtvweYQTID12" d="M249.388,787.486C246.253154,787.547714,243.123773,787.775366,240.013,788.168C235.013,788.811,229.403,789.75,226.284,792.868C220.913075,798.271305,220.926194,807.001528,226.313333,812.388667C231.700472,817.775806,240.430695,817.788925,245.834,812.418C248.952,809.3,249.891,803.687,250.534,798.69C250.926628,795.579226,251.15428,792.449846,251.216,789.315C251.220861,788.82871,251.029829,788.360922,250.685954,788.017046C250.342078,787.673171,249.87429,787.482139,249.388,787.487ZM247.45,791.252C247.422745,793.584873,247.25276,795.913892,246.941,798.226C246.33,802.976,244.841,808.285,243.27,809.857C239.285818,813.840354,232.826854,813.839682,228.8435,809.8555C224.860146,805.871318,224.860818,799.412354,228.845,795.429C230.418,793.856,235.726,792.369,240.476,791.758C242.788118,791.446873,245.11718,791.278221,247.45,791.253Z" transform="scale(1.000001,1.000001) translate(-237.804097,-802.712723)" fill="rgb(27,84,248)" stroke="none" stroke-width="1"/></g></g><g id="ePtvweYQTID13_tr" transform="translate(43.498567,38.015987) rotate(0)"><path id="ePtvweYQTID13" d="M220.842,789.074C220.004881,789.092585,219.289648,789.682628,219.112289,790.500954C218.934929,791.31928,219.341692,792.152498,220.096,792.516C223.740108,794.716872,227.067941,797.403159,229.988,800.501C233.902,804.631,237.178,809.778,237.178,814.401C237.178,815.401188,237.988812,816.212,238.989,816.212C239.989188,816.212,240.8,815.401188,240.8,814.401C240.8,808.172,236.84,802.472,232.616,798.015C229.446908,794.566877,225.771493,791.62115,221.716,789.279C221.447158,789.140984,221.148124,789.07224,220.846,789.079Z" transform="translate(-240.836783,-816.225987)" fill="rgb(27,84,248)" stroke="none" stroke-width="1"/></g></g></g></g></svg>