<svg xmlns="http://www.w3.org/2000/svg" xmlns:xlink="http://www.w3.org/1999/xlink" id="ePKtjzgBrVl1" viewBox="0 0 70 70" shape-rendering="geometricPrecision" text-rendering="geometricPrecision"><style><![CDATA[#ePKtjzgBrVl1{pointer-events: all}#ePKtjzgBrVl1:hover #ePKtjzgBrVl5_to {animation: ePKtjzgBrVl5_to__to 1000ms linear 1 normal forwards}@keyframes ePKtjzgBrVl5_to__to { 0% {transform: translate(20.863298px,35.04427px);animation-timing-function: cubic-bezier(0.42,0,0.58,1)} 50% {transform: translate(-21.008471px,35.000046px);animation-timing-function: cubic-bezier(0.42,0,0.58,1)} 100% {transform: translate(21.036931px,35.000046px)}}]]></style><rect id="ePKtjzgBrVl2" width="70" height="70" rx="0" ry="0" fill="rgb(255,255,255)" stroke="none" stroke-width="0"/><path id="ePKtjzgBrVl3" d="M-99,67.5C-99.2,67.5,-100.1,67.2,-100.8,67L-100.9,67C-101.2,66.1,-101.5,65.2,-102,64.4L-101,62.7C-100.8,62.3,-100.9,61.8,-101.2,61.5L-103.5,59.2C-103.8,58.9,-104.3,58.8,-104.7,59L-106.4,60C-107.2,59.5,-108.1,59.2,-109,58.9L-109.5,57C-109.6,56.6,-110,56.3,-110.4,56.3L-113.7,56.3C-114.1,56.3,-114.5,56.6,-114.6,57L-115.1,58.9C-115.6,59.1,-116.2,59.3,-116.7,59.5L-116.7,44.7C-116.7,42.5,-118.4,40.8,-120.6,40.8L-152.5,40.8C-154.6,40.8,-156.4,42.5,-156.4,44.6C-156.4,44.6,-156.4,44.7,-156.4,44.7L-156.4,101C-156.4,103.2,-154.7,104.9,-152.5,104.9L-152.5,104.9L-120.6,104.9C-118.4,104.9,-116.7,103.2,-116.7,101L-116.7,101L-116.7,80.8C-116.2,81,-115.6,81.2,-115.1,81.4L-114.6,83.3C-114.5,83.7,-114.1,84,-113.7,84L-110.4,84C-110,84,-109.6,83.7,-109.5,83.3L-109,81.4C-108.1,81.1,-107.2,80.8,-106.4,80.3L-104.7,81.3C-104.3,81.5,-103.8,81.4,-103.5,81.1L-101.2,78.8C-101.1,78.7,-101,78.6,-100.9,78.4C-100.8,78.1,-100.8,77.8,-101,77.5L-101,77.5C-101.1,77.4,-101.6,76.4,-101.9,75.8C-101.4,75,-101.1,74.1,-100.8,73.2L-98.9,72.7C-98.5,72.6,-98.2,72.2,-98.2,71.8L-98.2,68.5C-98.2,68,-98.6,67.6,-99,67.5Z" fill="rgb(27,84,248)" stroke="rgb(27,84,248)" stroke-width="0.5"/><path id="ePKtjzgBrVl4" d="M30.5,4C29.9,4,29.4,4.5,29.4,5.1L29.4,10.8C26.8,11.4,24.3,12.5,22,13.9L18,9.9C17.6,9.5,16.9,9.5,16.4,9.9L10,16.3C9.6,16.7,9.6,17.4,10,17.9L13.9,21.8C13.6,22.4,13.3,22.9,12.9,23.5C12.5,24,12.6,24.7,13.1,25C13.6,25.4,14.3,25.3,14.6,24.8C14.6,24.8,14.6,24.7,14.7,24.7C15.3,23.9,15.8,23,16.2,22.1C16.4,21.7,16.3,21.2,16,20.8L12.3,17.1L17.2,12.2L21,16C21.4,16.4,22,16.4,22.4,16.1C24.9,14.4,27.8,13.2,30.8,12.6C31.3,12.5,31.7,12,31.7,11.5L31.7,6.2L38.6,6.2L38.6,11.5C38.6,12,39,12.5,39.5,12.6C42.5,13.2,45.4,14.4,47.9,16.1C48.3,16.4,48.9,16.3,49.3,16L53,12.3L57.9,17.2L54,20.8C53.6,21.2,53.6,21.8,53.9,22.2C55.6,24.7,56.8,27.6,57.4,30.6C57.5,31.1,58,31.5,58.5,31.5L63.8,31.5L63.8,38.4L58.5,38.4C58,38.4,57.5,38.8,57.4,39.3C56.8,42.3,55.6,45.2,53.9,47.7C53.6,48.1,53.7,48.7,54,49.1L57.7,52.8L52.8,57.7L49.2,54C48.8,53.6,48.2,53.6,47.8,53.9C45.3,55.6,42.4,56.8,39.4,57.4C38.9,57.5,38.5,58,38.5,58.5L38.5,63.8L31.6,63.8L31.6,58.5C31.6,58,31.2,57.5,30.7,57.4C27.7,56.8,24.8,55.6,22.3,53.9C21.9,53.6,21.3,53.7,20.9,54L17.2,57.7L12.3,52.8L16.1,49.1C16.5,48.7,16.5,48.1,16.2,47.7C15.7,46.9,15.2,46.2,14.8,45.4C14.5,44.9,13.9,44.6,13.3,44.9C12.8,45.2,12.5,45.8,12.8,46.4C12.8,46.4,12.8,46.4,12.8,46.4C13.1,47,13.5,47.6,13.9,48.2L10,52.1C9.6,52.5,9.6,53.2,10,53.7L16.4,60.1C16.8,60.5,17.5,60.5,18,60.1L22,56.1C24.3,57.5,26.8,58.6,29.5,59.2L29.5,64.9C29.5,65.5,30,66,30.6,66L39.7,66C40.3,66,40.8,65.5,40.8,64.9L40.8,59.2C43.4,58.6,45.9,57.5,48.2,56.1L52.2,60.1C52.6,60.5,53.3,60.5,53.8,60.1L60.2,53.7C60.6,53.3,60.6,52.6,60.2,52.1L56.2,48.1C57.6,45.8,58.7,43.3,59.3,40.6L65,40.6C65.6,40.6,66.1,40.1,66.1,39.5L66.1,30.4C66.1,29.8,65.6,29.3,65,29.3L59.3,29.3C58.7,26.7,57.6,24.2,56.2,21.9L60.2,17.9C60.6,17.5,60.6,16.8,60.2,16.3L53.8,9.9C53.4,9.5,52.7,9.5,52.2,9.9L48.2,13.9C45.9,12.5,43.4,11.4,40.7,10.8L40.7,5.1C40.7,4.5,40.2,4,39.6,4L30.5,4Z" fill="rgb(27,84,248)" stroke="none" stroke-width="1"/><g id="ePKtjzgBrVl5_to" transform="translate(20.863298,35.04427)"><path id="ePKtjzgBrVl5" d="M30.4,28C29.8,28,29.3,28.5,29.3,29.1C29.3,29.4,29.4,29.7,29.7,29.9L33.9,33.8L5.1,33.8C4.5,33.9,4,34.4,4,35C4,35.6,4.5,36.1,5.1,36.1C5.1,36.1,5.1,36.1,5.1,36.1L33.9,36.1L29.7,40.1C29.2,40.5,29.2,41.2,29.6,41.7C30,42.2,30.7,42.2,31.2,41.8C31.2,41.8,31.2,41.8,31.2,41.8L37.4,35.9C37.6,35.7,37.8,35.4,37.7,35.1C37.7,35,37.7,34.8,37.6,34.7C37.6,34.7,37.6,34.6,37.6,34.6C37.6,34.6,37.6,34.5,37.5,34.5C37.5,34.5,37.5,34.5,37.5,34.5C37.5,34.5,37.5,34.5,37.5,34.5C37.5,34.5,37.5,34.5,37.5,34.4C37.5,34.4,37.5,34.4,37.4,34.3C37.4,34.3,37.4,34.3,37.4,34.3L37.4,34.3C37.4,34.3,37.4,34.3,37.4,34.3L31.2,28.5C31,28.1,30.7,28,30.4,28Z" transform="translate(-20.863298,-35.04427)" fill="rgb(27,84,248)" stroke="none" stroke-width="1"/></g></svg>