<?xml version="1.0" encoding="UTF-8"?> <svg xmlns="http://www.w3.org/2000/svg" id="Layer_1" data-name="Layer 1" viewBox="0 0 80 80"><defs><style>.cls-1{fill:#1b54f8;}</style></defs><path class="cls-1" d="M8.9,15V55.26H36.56V63.6h-5.4a.7.7,0,1,0,0,1.4H51.08a.7.7,0,0,0,0-1.4H45.67V55.26H73.33V15Zm63,38.86H10.3v-2.1H71.93ZM44.27,63.6H38V55.26h6.3Zm-34-13.24V19.9H71.93V50.36Zm0-34H71.93v2.1H10.3Z"></path><path class="cls-1" d="M66,33.66l-1.72-1.08a.33.33,0,0,1-.12-.44l.95-1.79A1.73,1.73,0,0,0,63.6,27.8l-2-.07a.34.34,0,0,1-.32-.32l-.07-2a1.71,1.71,0,0,0-.87-1.44,1.68,1.68,0,0,0-1.68,0l-1.79.95a.33.33,0,0,1-.44-.12L55.33,23a1.74,1.74,0,0,0-2.95,0l-1.07,1.72a.33.33,0,0,1-.44.12l-1.79-.95a1.74,1.74,0,0,0-2.55,1.47l-.07,2a.34.34,0,0,1-.32.32l-2,.07a1.73,1.73,0,0,0-1.47,2.55l1,1.79a.33.33,0,0,1-.12.44l-1.72,1.08a1.73,1.73,0,0,0,0,2.94l1.72,1.07a.34.34,0,0,1,.12.44l-1,1.79a1.73,1.73,0,0,0,1.47,2.55l2,.07a.34.34,0,0,1,.32.32l.07,2a1.73,1.73,0,0,0,2.55,1.47l1.79-1a.33.33,0,0,1,.44.12l1.07,1.72a1.74,1.74,0,0,0,2.95,0l1.07-1.72a.33.33,0,0,1,.44-.12l1.79,1a1.73,1.73,0,0,0,2.55-1.47l.07-2a.34.34,0,0,1,.32-.32l2-.07a1.73,1.73,0,0,0,1.47-2.55l-.95-1.79a.34.34,0,0,1,.12-.44L66,36.6a1.75,1.75,0,0,0,.82-1.47A1.72,1.72,0,0,0,66,33.66Zm-.74,1.75L63.5,36.48a1.75,1.75,0,0,0-.62,2.29l.95,1.79a.32.32,0,0,1,0,.32.33.33,0,0,1-.28.17l-2,.07a1.74,1.74,0,0,0-1.68,1.67l-.07,2a.31.31,0,0,1-.17.29.32.32,0,0,1-.32,0l-1.79-1a1.72,1.72,0,0,0-2.28.61l-1.07,1.72a.33.33,0,0,1-.29.16.35.35,0,0,1-.28-.16L52.5,44.77a1.75,1.75,0,0,0-2.29-.61l-1.79,1a.32.32,0,0,1-.32,0,.35.35,0,0,1-.17-.29l-.07-2a1.73,1.73,0,0,0-1.67-1.67l-2-.07a.3.3,0,0,1-.28-.17.29.29,0,0,1,0-.32l1-1.79a1.74,1.74,0,0,0-.61-2.29l-1.73-1.07a.3.3,0,0,1-.15-.28.33.33,0,0,1,.15-.28l1.73-1.07a1.75,1.75,0,0,0,.61-2.29l-1-1.79a.29.29,0,0,1,0-.32.3.3,0,0,1,.28-.17l2-.07a1.73,1.73,0,0,0,1.67-1.68l.07-2a.33.33,0,0,1,.49-.28l1.8,1a1.75,1.75,0,0,0,2.29-.62l1.07-1.72a.32.32,0,0,1,.28-.16.31.31,0,0,1,.28.16l1.07,1.72a1.76,1.76,0,0,0,2.29.62l1.79-1a.34.34,0,0,1,.32,0,.35.35,0,0,1,.17.28l.07,2a1.74,1.74,0,0,0,1.67,1.68l2,.07a.31.31,0,0,1,.28.16.31.31,0,0,1,0,.33l-1,1.79a1.74,1.74,0,0,0,.61,2.29l1.73,1.07a.31.31,0,0,1,.15.28A.32.32,0,0,1,65.22,35.41Z"></path><path class="cls-1" d="M53.86,28.5a6.63,6.63,0,1,0,6.63,6.63A6.63,6.63,0,0,0,53.86,28.5Zm0,11.85a5.23,5.23,0,1,1,5.23-5.22A5.23,5.23,0,0,1,53.86,40.35Z"></path><path class="cls-1" d="M19.43,27V24.31a.7.7,0,0,0-1.4,0V27a3.26,3.26,0,0,0,0,6.38V45.67a.7.7,0,0,0,1.4,0V33.42a3.26,3.26,0,0,0,0-6.38Zm0,4.93a1.86,1.86,0,0,1-.7.14A1.82,1.82,0,0,1,18,32a1.88,1.88,0,0,1,0-3.48,1.82,1.82,0,0,1,.7-.14,1.86,1.86,0,0,1,.7.14,1.88,1.88,0,0,1,0,3.48Z"></path><path class="cls-1" d="M26.43,34.9V24.31a.7.7,0,0,0-1.4,0V34.9a3.27,3.27,0,0,0,0,6.39v4.38a.7.7,0,1,0,1.4,0V41.29a3.27,3.27,0,0,0,0-6.39Zm0,4.92a1.65,1.65,0,0,1-.7.14,1.68,1.68,0,0,1-.7-.14,1.87,1.87,0,0,1,0-3.47,1.86,1.86,0,0,1,.7-.14,1.82,1.82,0,0,1,.7.14,1.87,1.87,0,0,1,0,3.47Z"></path><path class="cls-1" d="M33.43,30V24.31a.7.7,0,1,0-1.4,0V30a3.27,3.27,0,0,0,0,6.39v9.23a.7.7,0,1,0,1.4,0V36.43a3.27,3.27,0,0,0,0-6.39Zm0,4.93a1.78,1.78,0,0,1-.7.14A1.86,1.86,0,0,1,32,35a1.87,1.87,0,0,1,0-3.47,1.86,1.86,0,0,1,.7-.14,1.78,1.78,0,0,1,.7.14,1.87,1.87,0,0,1,0,3.47Z"></path></svg> 