<?xml version="1.0" encoding="UTF-8"?> <!-- Generator: Adobe Illustrator 25.2.3, SVG Export Plug-In . SVG Version: 6.00 Build 0) --> <svg xmlns="http://www.w3.org/2000/svg" xmlns:xlink="http://www.w3.org/1999/xlink" version="1.1" id="Layer_1" x="0px" y="0px" viewBox="0 0 74 74" style="enable-background:new 0 0 74 74;" xml:space="preserve"> <style type="text/css"> .st0{fill:#1B54F8;stroke:#1B54F8;stroke-width:0.18;} </style> <desc>Created with Sketch.</desc> <g id="Proof-of-Concept"> <g id="Group" transform="translate(15.000000, 7.000000)"> <path id="Shape" class="st0" d="M29.2,0.8l-25.7,0C2,0.9,0.8,2.1,0.8,3.6v53.3c0,1.5,1.2,2.8,2.8,2.8l0,0h38.6 c1.5,0,2.8-1.2,2.8-2.8V18.3c0,0,0-0.1,0-0.1c0,0,0-0.1,0-0.1c0-0.1-0.1-0.2-0.2-0.4c0,0,0,0,0-0.1L29.9,1.2c0,0,0,0,0,0 c-0.1-0.1-0.3-0.2-0.4-0.2c0,0-0.1,0-0.1,0C29.3,0.9,29.3,0.8,29.2,0.8z M3.5,2.7h24.8V16c0,1.5,1.2,3.2,2.8,3.2H43v37.6 c0,0.5-0.4,0.9-0.9,0.9H3.5c-0.5,0-0.9-0.4-0.9-0.9V3.6C2.6,3.1,3,2.7,3.5,2.7z M30.1,4.2l11.7,13.2H31.1c-0.4,0-0.9-0.8-0.9-1.4 V4.2z M10.9,17.4c-0.5,0-0.9,0.4-0.9,0.9c0,0.5,0.4,0.9,0.9,0.9h11c0.5,0,0.9-0.4,0.9-0.9c0-0.5-0.4-0.9-0.9-0.9H10.9z M10.9,24.7 c-0.5,0-0.9,0.4-0.9,0.9c0,0.5,0.4,0.9,0.9,0.9h5.1c0.6-0.7,1.3-1.3,2.1-1.8H10.9z M27.3,24.7c0.8,0.5,1.5,1.1,2.1,1.8h5.4 c0.5,0,0.9-0.4,0.9-0.9c0-0.5-0.4-0.9-0.9-0.9H27.3z M26.8,28.4l-5.3,5.3l-2.3-2.3l-2.3,2.3l4.6,4.6l7.6-7.6L26.8,28.4z M10.9,32.1c-0.5,0-0.9,0.4-0.9,0.9c0,0.5,0.4,0.9,0.9,0.9h2.8c0-0.3,0-0.5,0-0.8c0-0.3,0-0.7,0-1H10.9z M31.6,32.1 c0,0.3,0,0.6,0.1,0.9v0.1c0,0.3,0,0.6,0,0.9h3.1c0.5,0,0.9-0.4,0.9-0.9c0-0.5-0.4-0.9-0.9-0.9H31.6z M10.9,39.4 c-0.5,0-0.9,0.4-0.9,0.9c0,0.5,0.4,0.9,0.9,0.9h7c-0.7-0.5-1.4-1.1-2-1.8H10.9z M29.5,39.4c-0.6,0.7-1.2,1.3-2,1.8h7.3 c0.5,0,0.9-0.4,0.9-0.9c0-0.5-0.4-0.9-0.9-0.9H29.5z M10.9,46.8c-0.5,0-0.9,0.4-0.9,0.9c0,0.5,0.4,0.9,0.9,0.9h23.9 c0.5,0,0.9-0.4,0.9-0.9c0-0.5-0.4-0.9-0.9-0.9H10.9z"></path> </g> </g> </svg> 